<svg xmlns="http://www.w3.org/2000/svg" width="800" height="400">
<rect width="100%" height="100%" fill="#fff"/>
<text x="400.0" y="30" text-anchor="middle" font-size="16">Per-stream SM allocation</text>
<rect x="80.0" y="80.0" width="203.33333333333334" height="240.0" fill="#ff9999" stroke="#333"/>
<text x="181.66666666666669" y="205.0" text-anchor="middle" font-size="10">114</text>
<rect x="80.0" y="80.0" width="203.33333333333334" height="0.0" fill="#99ff99" stroke="#333"/>
<rect x="80.0" y="80.0" width="203.33333333333334" height="0.0" fill="#9999ff" stroke="#333"/>
<rect x="80.0" y="80.0" width="203.33333333333334" height="0.0" fill="#ffcc99" stroke="#333"/>
<rect x="80.0" y="80.0" width="203.33333333333334" height="0.0" fill="#c299ff" stroke="#333"/>
<text x="181.66666666666669" y="380" text-anchor="middle" font-size="12">Existing</text>
<rect x="293.33333333333337" y="269.4736842105263" width="203.33333333333334" height="50.526315789473685" fill="#ff9999" stroke="#333"/>
<text x="395.00000000000006" y="299.7368421052631" text-anchor="middle" font-size="10">24</text>
<rect x="293.33333333333337" y="218.94736842105263" width="203.33333333333334" height="50.526315789473685" fill="#99ff99" stroke="#333"/>
<text x="395.00000000000006" y="249.21052631578948" text-anchor="middle" font-size="10">24</text>
<rect x="293.33333333333337" y="168.42105263157896" width="203.33333333333334" height="50.526315789473685" fill="#9999ff" stroke="#333"/>
<text x="395.00000000000006" y="198.6842105263158" text-anchor="middle" font-size="10">24</text>
<rect x="293.33333333333337" y="117.89473684210526" width="203.33333333333334" height="50.526315789473685" fill="#ffcc99" stroke="#333"/>
<text x="395.00000000000006" y="148.1578947368421" text-anchor="middle" font-size="10">24</text>
<rect x="293.33333333333337" y="84.21052631578948" width="203.33333333333334" height="33.68421052631579" fill="#c299ff" stroke="#333"/>
<text x="395.00000000000006" y="106.05263157894737" text-anchor="middle" font-size="10">16</text>
<text x="395.00000000000006" y="380" text-anchor="middle" font-size="12">Existing+GC</text>
<rect x="506.6666666666667" y="147.36842105263156" width="203.33333333333334" height="172.63157894736844" fill="#ff9999" stroke="#333"/>
<text x="608.3333333333334" y="238.68421052631578" text-anchor="middle" font-size="10">82</text>
<rect x="506.6666666666667" y="130.52631578947367" width="203.33333333333334" height="16.842105263157894" fill="#99ff99" stroke="#333"/>
<text x="608.3333333333334" y="143.94736842105263" text-anchor="middle" font-size="10">8</text>
<rect x="506.6666666666667" y="113.68421052631578" width="203.33333333333334" height="16.842105263157894" fill="#9999ff" stroke="#333"/>
<text x="608.3333333333334" y="127.10526315789473" text-anchor="middle" font-size="10">8</text>
<rect x="506.6666666666667" y="96.84210526315789" width="203.33333333333334" height="16.842105263157894" fill="#ffcc99" stroke="#333"/>
<text x="608.3333333333334" y="110.26315789473684" text-anchor="middle" font-size="10">8</text>
<rect x="506.6666666666667" y="80.0" width="203.33333333333334" height="16.842105263157894" fill="#c299ff" stroke="#333"/>
<text x="608.3333333333334" y="93.42105263157895" text-anchor="middle" font-size="10">8</text>
<text x="608.3333333333334" y="380" text-anchor="middle" font-size="12">Proposed</text>
<rect x="730" y="68" width="14" height="14" fill="#ff9999" stroke="#333"/>
<text x="750" y="80" font-size="12">stream0</text>
<rect x="730" y="88" width="14" height="14" fill="#99ff99" stroke="#333"/>
<text x="750" y="100" font-size="12">stream1</text>
<rect x="730" y="108" width="14" height="14" fill="#9999ff" stroke="#333"/>
<text x="750" y="120" font-size="12">stream2</text>
<rect x="730" y="128" width="14" height="14" fill="#ffcc99" stroke="#333"/>
<text x="750" y="140" font-size="12">stream3</text>
<rect x="730" y="148" width="14" height="14" fill="#c299ff" stroke="#333"/>
<text x="750" y="160" font-size="12">stream4</text>
</svg>